HIERARCHY
ROOT Hips
{
	OFFSET 0.00000 0.00000 0.00000
	CHANNELS 6 Xposition Yposition Zposition Zrotation Yrotation Xrotation 
	JOINT LHipJoint
	{
		OFFSET 0 0 0
		CHANNELS 3 Zrotation Yrotation Xrotation
		JOINT LeftUpLeg
		{
			OFFSET 1.54859 -1.61379 0.86856
			CHANNELS 3 Zrotation Yrotation Xrotation
			JOINT LeftLeg
			{
				OFFSET 2.25087 -6.18423 0.00000
				CHANNELS 3 Zrotation Yrotation Xrotation
				JOINT LeftFoot
				{
					OFFSET 2.40328 -6.60297 0.00000
					CHANNELS 3 Zrotation Yrotation Xrotation
					JOINT LeftToeBase
					{
						OFFSET 0.17435 -0.47901 2.02453
						CHANNELS 3 Zrotation Yrotation Xrotation
						End Site
						{
							OFFSET 0.00000 -0.00000 1.04844
						}
					}
				}
			}
		}
	}
	JOINT RHipJoint
	{
		OFFSET 0 0 0
		CHANNELS 3 Zrotation Yrotation Xrotation
		JOINT RightUpLeg
		{
			OFFSET -1.54669 -1.61379 0.86856
			CHANNELS 3 Zrotation Yrotation Xrotation
			JOINT RightLeg
			{
				OFFSET -2.28132 -6.26789 0.00000
				CHANNELS 3 Zrotation Yrotation Xrotation
				JOINT RightFoot
				{
					OFFSET -2.51636 -6.91365 0.00000
					CHANNELS 3 Zrotation Yrotation Xrotation
					JOINT RightToeBase
					{
						OFFSET -0.15124 -0.41552 2.21090
						CHANNELS 3 Zrotation Yrotation Xrotation
						End Site
						{
							OFFSET -0.00000 -0.00000 1.13399
						}
					}
				}
			}
		}
	}
	JOINT LowerBack
	{
		OFFSET 0 0 0
		CHANNELS 3 Zrotation Yrotation Xrotation
		JOINT Spine
		{
			OFFSET -0.04287 2.26161 -0.25690
			CHANNELS 3 Zrotation Yrotation Xrotation
			JOINT Spine1
			{
				OFFSET 0.02248 2.28395 -0.10140
				CHANNELS 3 Zrotation Yrotation Xrotation
				JOINT Neck
				{
					OFFSET 0 0 0
					CHANNELS 3 Zrotation Yrotation Xrotation
					JOINT Neck1
					{
						OFFSET -0.11644 1.38496 0.11345
						CHANNELS 3 Zrotation Yrotation Xrotation
						JOINT Head
						{
							OFFSET 0.29383 1.36600 0.06642
							CHANNELS 3 Zrotation Yrotation Xrotation
							End Site
							{
								OFFSET 0.11075 1.41395 -0.00294
							}
						}
					}
				}
				JOINT LeftShoulder
				{
					OFFSET 0 0 0
					CHANNELS 3 Zrotation Yrotation Xrotation
					JOINT LeftArm
					{
						OFFSET 3.51628 0.59542 -0.30346
						CHANNELS 3 Zrotation Yrotation Xrotation
						JOINT LeftForeArm
						{
							OFFSET 4.76405 -0.00000 0.00000
							CHANNELS 3 Zrotation Yrotation Xrotation
							JOINT LeftHand
							{
								OFFSET 3.13759 -0.00000 -0.00000
								CHANNELS 3 Zrotation Yrotation Xrotation
								JOINT LeftFingerBase
								{
									OFFSET 0 0 0
									CHANNELS 3 Zrotation Yrotation Xrotation
									JOINT LeftHandIndex1
									{
										OFFSET 0.73226 -0.00000 -0.00000
										CHANNELS 3 Zrotation Yrotation Xrotation
										End Site
										{
											OFFSET 0.59037 -0.00000 -0.00000
										}
									}
								}
								JOINT LThumb
								{
									OFFSET 0 0 0
									CHANNELS 3 Zrotation Yrotation Xrotation
									End Site
									{
										OFFSET 0.59938 -0.00000 0.59938
									}
								}
							}
						}
					}
				}
				JOINT RightShoulder
				{
					OFFSET 0 0 0
					CHANNELS 3 Zrotation Yrotation Xrotation
					JOINT RightArm
					{
						OFFSET -3.30990 0.84213 -0.36430
						CHANNELS 3 Zrotation Yrotation Xrotation
						JOINT RightForeArm
						{
							OFFSET -5.10161 -0.00000 -0.00000
							CHANNELS 3 Zrotation Yrotation Xrotation
							JOINT RightHand
							{
								OFFSET -3.23267 -0.00000 -0.00000
								CHANNELS 3 Zrotation Yrotation Xrotation
								JOINT RightFingerBase
								{
									OFFSET 0 0 0
									CHANNELS 3 Zrotation Yrotation Xrotation
									JOINT RightHandIndex1
									{
										OFFSET -0.70200 -0.00000 -0.00000
										CHANNELS 3 Zrotation Yrotation Xrotation
										End Site
										{
											OFFSET -0.56597 -0.00000 -0.00000
										}
									}
								}
								JOINT RThumb
								{
									OFFSET 0 0 0
									CHANNELS 3 Zrotation Yrotation Xrotation
									End Site
									{
										OFFSET -0.57461 -0.00000 0.57461
									}
								}
							}
						}
					}
				}
			}
		}
	}
}
MOTION
Frames: 10
Frame Time: .0083333
-6.4085 14.4354 -7.3274 -25.9777 117.9260 0.2241 0.0000 0.0000 0.0000 -22.6038 2.5338 6.0010 2.5954 10.0094 29.0072 0.1336 -3.0257 8.7053 5.7917 -14.2234 -44.1397 0.0000 0.0000 0.0000 19.0313 10.0161 -75.8840 -11.7813 -18.2967 65.2938 -1.1051 2.4589 -19.2028 -5.6330 14.0630 -43.4902 -8.8308 -0.4212 21.8522 -2.0458 -1.1092 10.0565 3.0399 -0.2953 -0.9493 -15.5925 -10.4909 0.5191 25.0255 -10.2105 -25.7607 11.3378 -5.1873 -5.1048 -0.0000 -0.0000 0.0000 -71.4465 -9.5976 -10.7884 82.6543 -59.7951 -53.6428 -0.0000 0.0000 -69.9479 -19.8040 38.7247 -12.6952 -7.1250 0.0000 -0.0000 -60.6143 58.4422 -25.7163 -0.0000 -0.0000 0.0000 82.0592 6.2892 10.9366 -38.2209 46.9798 -17.1269 0.0000 -0.0000 -4.1661 -46.0092 28.4282 -26.2493 7.1250 -0.0000 -0.0000 -8.7009 7.5655 -9.8783
-5.9388 14.4223 -7.6286 -27.0296 117.9490 -0.7977 0.0000 0.0000 0.0000 -23.3572 1.3417 7.9237 2.7958 10.3570 30.1406 0.1355 1.2207 6.6295 5.9579 -14.3874 -44.8125 0.0000 0.0000 0.0000 20.2474 9.7421 -75.3044 -10.5921 -17.7296 61.4498 -1.0049 3.7935 -18.0556 -5.1117 13.5084 -41.3029 -8.6760 -0.3623 21.3654 -1.7903 -0.9674 10.0775 3.1926 -0.2477 -0.7028 -15.9346 -10.4047 0.9303 24.5299 -10.2788 -25.8288 11.2543 -5.1852 -5.2127 0.0000 0.0000 0.0000 -73.9292 -5.8669 -13.2989 89.4524 -59.9989 -59.5258 -0.0000 0.0000 -72.7156 -22.6275 38.1487 -14.4386 -7.1250 0.0000 -0.0000 -62.1665 57.4394 -25.1734 0.0000 0.0000 0.0000 81.2868 5.4415 10.0297 -39.0382 47.4896 -17.7269 0.0000 -0.0000 -6.4643 -45.3215 28.4773 -25.7429 7.1250 -0.0000 -0.0000 -8.3118 7.3175 -9.3963
-5.4747 14.3958 -7.9174 -28.4004 118.0470 -2.1762 0.0000 0.0000 0.0000 -24.1096 0.5507 8.9789 3.2489 11.0875 32.5757 0.0532 4.4367 4.8099 5.7032 -14.1344 -43.7785 0.0000 0.0000 0.0000 21.1607 9.3879 -74.4052 -9.5727 -17.1624 58.0503 -0.8367 4.9024 -16.3302 -4.7183 13.0593 -39.5909 -8.2662 -0.4864 21.0268 -2.0920 -1.0173 10.1394 2.6457 -0.2567 -0.4874 -15.7004 -10.4678 1.1880 24.4922 -10.2884 -26.4295 11.2728 -5.2044 -5.4603 -0.0000 0.0000 0.0000 -75.5702 -2.2803 -16.3206 96.2934 -59.8498 -65.4475 -0.0000 0.0000 -75.6083 -25.1970 38.0859 -16.1840 -7.1250 0.0000 -0.0000 -64.1126 56.8124 -25.4317 -0.0000 0.0000 0.0000 81.3396 4.5701 9.5334 -40.0747 48.1141 -18.4948 0.0000 -0.0000 -8.1889 -45.1511 28.5286 -25.6467 7.1250 -0.0000 -0.0000 -8.2046 7.3028 -9.2709
-5.0046 14.3722 -8.1983 -30.0546 118.2030 -3.9421 0.0000 0.0000 0.0000 -24.8028 0.1319 9.4577 3.9077 12.0366 35.8616 -0.0147 6.0568 3.8228 5.2259 -13.6338 -41.7898 0.0000 0.0000 0.0000 21.7514 8.9499 -73.2978 -8.7929 -16.6726 55.3711 -0.6465 6.2873 -14.3577 -4.2810 12.5253 -37.6164 -8.8711 -0.2813 20.5979 -1.6533 -0.7879 10.3152 3.4042 -0.1976 -0.0643 -16.3784 -10.6522 1.3346 24.4498 -10.6343 -26.6954 11.3858 -5.3205 -5.4518 -0.0000 0.0000 0.0000 -78.5175 0.7635 -19.2828 102.8334 -59.3684 -71.0905 -0.0000 0.0000 -77.7493 -26.0085 38.6490 -16.9474 -7.1250 0.0000 -0.0000 -65.4416 56.9415 -26.5488 -0.0000 0.0000 0.0000 80.0192 3.5943 9.0034 -41.2384 48.7867 -19.3657 0.0000 -0.0000 -9.5241 -45.4416 28.5855 -25.9152 7.1250 -0.0000 -0.0000 -8.3477 7.4967 -9.4604
-4.5259 14.3476 -8.4634 -31.6675 118.5110 -5.9383 0.0000 0.0000 0.0000 -25.3007 -0.0502 9.6359 4.7749 13.1258 39.8412 -0.0446 6.4872 3.2801 4.9275 -13.3016 -40.5083 0.0000 0.0000 0.0000 22.3025 8.3252 -71.7118 -8.3618 -16.3790 53.8556 -0.4858 7.0459 -12.6192 -3.2607 11.1055 -32.6367 -9.2022 0.0185 20.5048 -1.5803 -0.4120 10.4777 3.5936 -0.0287 0.1335 -16.4393 -11.0178 1.5870 24.6243 -11.1994 -26.7292 11.4378 -5.6364 -5.3617 0.0000 -0.0000 0.0000 -80.4474 3.4345 -21.8945 108.2514 -58.7031 -75.7374 -0.0000 0.0000 -79.2794 -26.0299 39.1423 -17.1339 -7.1250 0.0000 -0.0000 -66.0813 57.2069 -27.4445 0.0000 -0.0000 0.0000 79.5973 2.3877 8.0764 -42.3823 49.4196 -20.2304 0.0000 -0.0000 -10.3939 -45.6310 28.3990 -25.9292 7.1250 -0.0000 -0.0000 -8.5025 7.3627 -9.6222
-4.0400 14.3459 -8.7061 -32.9973 118.8270 -7.7774 0.0000 0.0000 0.0000 -25.4766 -0.0652 9.2908 5.8670 14.2982 44.4454 -0.0491 6.4646 3.1127 4.8768 -13.2438 -40.2879 0.0000 0.0000 0.0000 23.1056 7.5850 -69.7489 -8.3208 -16.3502 53.7103 -0.2863 5.6133 -9.7110 -0.5025 -4.5444 12.6134 -9.4119 0.4979 20.5756 -1.5933 0.1943 10.6005 3.5784 0.2696 0.1664 -16.7056 -11.4129 2.0517 25.0588 -11.8440 -26.6243 11.6118 -6.0142 -5.2035 -0.0000 0.0000 0.0000 -81.8032 5.6645 -24.1785 112.4556 -58.0062 -79.3170 -0.0000 0.0000 -79.7692 -26.6940 39.0226 -17.5671 -7.1250 0.0000 -0.0000 -66.4394 56.9874 -27.3240 -0.0000 0.0000 0.0000 79.7450 0.9161 6.7403 -43.6093 50.0687 -21.1669 0.0000 -0.0000 -10.9723 -45.8040 28.3011 -25.9939 7.1250 -0.0000 -0.0000 -8.6239 7.3248 -9.7577
-3.5523 14.3325 -8.9338 -33.6295 119.2420 -8.9201 0.0000 0.0000 0.0000 -25.0443 -0.0475 8.2748 7.2125 15.5082 49.6734 -0.0290 5.0869 2.5046 5.0801 -13.4734 -41.1676 0.0000 0.0000 0.0000 23.7767 7.0454 -67.3185 -8.6087 -16.5492 54.7268 -0.5841 0.5523 -14.2594 -1.5029 -7.7433 21.9370 -9.2405 1.1248 20.5486 -1.6191 1.0404 10.6328 3.2853 0.7006 0.1055 -16.7671 -11.7030 2.9083 25.3774 -12.4127 -26.4555 11.7435 -6.3903 -5.1388 0.0000 0.0000 0.0000 -82.3877 7.6125 -25.8622 115.7960 -57.3299 -82.1398 -0.0000 0.0000 -79.7570 -27.5398 38.9484 -18.1488 -7.1250 0.0000 -0.0000 -66.9911 56.7520 -27.3091 0.0000 0.0000 0.0000 80.4717 -0.9673 4.8884 -44.6886 50.6150 -21.9978 0.0000 -0.0000 -11.2325 -46.3434 28.8357 -26.8149 7.1250 -0.0000 -0.0000 -8.7690 8.1935 -10.0395
-3.0777 14.2946 -9.1552 -34.0316 119.5190 -9.6362 0.0000 0.0000 0.0000 -24.2166 0.1666 6.3351 8.8245 16.6935 55.4814 -0.0194 4.8545 2.6814 4.8895 -13.2583 -40.3431 0.0000 0.0000 0.0000 23.9866 7.1393 -65.1163 -9.0372 -16.8316 56.2188 -0.6582 -6.3672 -18.9475 -0.0191 0.8926 -2.4534 -8.6202 1.7237 20.5271 -1.9577 1.8770 10.4431 2.4003 1.1565 -0.1880 -16.2457 -11.8960 3.8443 25.6199 -12.8180 -26.0367 11.7525 -6.7413 -5.1048 -0.0000 -0.0000 0.0000 -81.9098 9.5052 -27.4040 118.3531 -56.7330 -84.2852 -0.0000 0.0000 -79.9083 -27.9142 39.2362 -18.5261 -7.1250 0.0000 -0.0000 -67.6402 56.8193 -27.8927 -0.0000 -0.0000 0.0000 81.7916 -2.7623 3.0479 -45.2269 50.8791 -22.4146 0.0000 -0.0000 -11.2760 -47.1112 29.6040 -28.0048 7.1250 -0.0000 -0.0000 -8.9638 9.4457 -10.4313
-2.6067 14.2740 -9.3642 -34.2221 119.8220 -9.9421 0.0000 0.0000 0.0000 -23.0407 0.3487 3.6215 10.6523 17.7607 61.6472 -0.0127 4.5650 2.7051 4.7129 -13.0531 -39.5674 0.0000 0.0000 0.0000 22.9510 7.9577 -63.0863 -9.5149 -17.1279 57.8545 -1.0876 -4.4407 -21.7718 -0.6474 -5.1470 14.3283 -8.3178 2.2816 20.3310 -1.8829 2.6239 10.2835 2.1572 1.5296 -0.3429 -16.5048 -12.1794 4.5476 26.0909 -13.3832 -25.6224 11.9343 -7.1107 -4.9041 -0.0000 -0.0000 0.0000 -81.9383 10.9203 -29.0577 120.2043 -56.2553 -85.8288 -0.0000 0.0000 -79.8220 -27.4568 39.2761 -18.2082 -7.1250 0.0000 -0.0000 -67.3438 56.9466 -27.9000 -0.0000 -0.0000 0.0000 82.3130 -3.8778 1.4475 -45.2358 50.8835 -22.4215 0.0000 -0.0000 -11.3685 -47.8309 30.2469 -29.0800 7.1250 -0.0000 -0.0000 -9.1592 10.5369 -10.8056
-2.1484 14.2527 -9.5643 -33.1440 119.8660 -9.3864 0.0000 0.0000 0.0000 -21.0208 0.6928 0.8078 12.6296 18.6443 67.9711 -0.0194 4.3005 2.1823 4.6093 -12.9298 -39.1063 0.0000 0.0000 0.0000 22.8996 8.6479 -60.7024 -9.9326 -17.3718 59.2629 -1.2734 -6.7255 -24.7173 -0.1749 -2.6937 7.4272 -7.4407 2.8671 20.4434 -1.6079 3.5137 10.3092 1.7664 1.9905 -0.4495 -16.9491 -12.6985 5.1196 26.7895 -14.1601 -25.8290 12.2457 -7.5634 -4.7678 -0.0000 0.0000 0.0000 -81.8520 11.6323 -30.6097 121.2848 -55.9577 -86.7258 -0.0000 0.0000 -79.5553 -27.1703 39.0318 -17.9127 -7.1250 0.0000 -0.0000 -66.8153 56.8821 -27.4096 -0.0000 0.0000 0.0000 82.8747 -4.3990 -0.2430 -44.8907 50.7148 -22.1541 0.0000 -0.0000 -11.6543 -48.2705 30.6394 -29.7440 7.1250 -0.0000 -0.0000 -9.2742 11.2066 -11.0304
